<svg xmlns="http://www.w3.org/2000/svg" width="27.074" height="13.537" viewBox="0 0 27.074 13.537">
  <path id="bone-solid" d="M25.334,102.284a3.147,3.147,0,0,0,1.739-2.814v-.323a3.147,3.147,0,0,0-6.132-1c-.325.974-.491,1.91-1.612,1.91H7.744c-1.158,0-1.336-1.08-1.612-1.91a3.147,3.147,0,0,0-6.132,1v.323a3.147,3.147,0,0,0,1.739,2.814.541.541,0,0,1,0,.968A3.147,3.147,0,0,0,0,106.067v.323a3.147,3.147,0,0,0,6.132,1c.325-.974.491-1.91,1.612-1.91H19.329c1.158,0,1.336,1.08,1.612,1.91a3.147,3.147,0,0,0,6.132-1v-.323a3.146,3.146,0,0,0-1.739-2.814.541.541,0,0,1,0-.968Z" transform="translate(0 -96)" fill="#fff"/>
</svg>
