<svg id="Layer_1" data-name="Layer 1" xmlns="http://www.w3.org/2000/svg" xmlns:xlink="http://www.w3.org/1999/xlink" viewBox="0 0 249.16 41.25"><defs><style>.cls-1{fill:none;}.cls-2{isolation:isolate;}.cls-3{clip-path:url(#clip-path);}.cls-4{fill:#ffbd58;}.cls-5{clip-path:url(#clip-path-2);}.cls-6{clip-path:url(#clip-path-3);}.cls-7{fill:#fff;}</style><clipPath id="clip-path" transform="translate(-1.96 -2.27)"><rect class="cls-1" x="44.64" y="17.86" width="29.6" height="24.45"/></clipPath><clipPath id="clip-path-2" transform="translate(-1.96 -2.27)"><rect class="cls-1" x="67.83" y="8.98" width="7.55" height="8.08"/></clipPath><clipPath id="clip-path-3" transform="translate(-1.96 -2.27)"><rect class="cls-1" x="53.99" y="23.88" width="8.63" height="19.7"/></clipPath></defs><g id="Group_7" data-name="Group 7"><g id="P_WCAST" data-name="P WCAST" class="cls-2"><g class="cls-2"><path d="M11.76,31.31a1.85,1.85,0,0,0-.69-.2.49.49,0,0,0-.44.1.66.66,0,0,0-.36.39,2.63,2.63,0,0,0-.18.71,7.24,7.24,0,0,0-.05.76v1.32C10,37.5,8.67,39.07,6.22,39.1a3.69,3.69,0,0,1-2.94-1.25,5.69,5.69,0,0,1-1.17-3.6Q2,31.31,2,25.57T2.06,16A12.27,12.27,0,0,1,4,9.6,10.08,10.08,0,0,1,9,5.53a15.12,15.12,0,0,1,6-.93,14.31,14.31,0,0,1,7.65,2.21Q26.95,9.69,28.37,16T27.1,27a10,10,0,0,1-6.23,4.8,15.09,15.09,0,0,1-4.6.49A12.58,12.58,0,0,1,11.76,31.31Zm6.76-8.77a4.4,4.4,0,0,0,1.13-2.9,7.7,7.7,0,0,0-.39-2.89A3.7,3.7,0,0,0,17,14.35a4,4,0,0,0-3.33.44,4.25,4.25,0,0,0-2.23,2.55,5.12,5.12,0,0,0,.14,3.48,4.6,4.6,0,0,0,2.26,2.45,4.06,4.06,0,0,0,2.47.39A3.66,3.66,0,0,0,18.52,22.54Z" transform="translate(-1.96 -2.27)"/><path d="M106.08,36.3c-.42-.52-.78-1-1.08-1.37a1.44,1.44,0,0,0-1-.59,1.3,1.3,0,0,0-1,.59A8.67,8.67,0,0,1,101.18,37,8.36,8.36,0,0,1,94.64,39a8.08,8.08,0,0,1-5.81-3.43,18.1,18.1,0,0,1-2.3-5,40.05,40.05,0,0,1-1.47-5.73q0-.19-2.4-14.26a6.92,6.92,0,0,1,.1-3.77,3.57,3.57,0,0,1,2.4-2,3.61,3.61,0,0,1,3,.34A4.64,4.64,0,0,1,90,7.3a19.88,19.88,0,0,1,.86,2.4c.24.85.49,1.9.73,3.16s.42,2.1.52,2.52l.56,2.38.71,3c.07.26.17.76.32,1.5s.27,1.3.37,1.69c.42,1.53.91,2.38,1.47,2.54a1,1,0,0,0,1.08-.24q2.2-1.62,2.94-6a5,5,0,0,1,2.35-3.92,4.31,4.31,0,0,1,4.6-.15,3.86,3.86,0,0,1,1.06.81,3.59,3.59,0,0,1,.68,1.23,10.19,10.19,0,0,1,.35,1.1q.07.34.27,1.32a11.81,11.81,0,0,0,1.47,4.41,2.31,2.31,0,0,0,.78.74,1.25,1.25,0,0,0,1.13-.05,2.11,2.11,0,0,0,.68-.73,8.72,8.72,0,0,0,1.18-2.65q1.13-4.56,3-12.89a4.49,4.49,0,0,1,3.33-3.72,4.13,4.13,0,0,1,4.26,1.13,4.66,4.66,0,0,1,1.18,4.45q-2.16,10-3.24,14.12A30.6,30.6,0,0,1,119.17,34a11.64,11.64,0,0,1-4.51,4.22,6.69,6.69,0,0,1-5.64.24A7.74,7.74,0,0,1,106.08,36.3Z" transform="translate(-1.96 -2.27)"/><path d="M130,29.84a15.49,15.49,0,0,1-1.47-7.3,19.48,19.48,0,0,1,5.2-13.72q4.6-4.91,12.79-4a13,13,0,0,1,5.29,1.76,7.87,7.87,0,0,1,3.48,4.31,4.08,4.08,0,0,1,0,2.82,3.75,3.75,0,0,1-1.74,2,3.67,3.67,0,0,1-2.47.47,4.14,4.14,0,0,1-2.18-1.2,5.61,5.61,0,0,0-5-1.79,6.79,6.79,0,0,0-4.61,3,10.36,10.36,0,0,0-1.76,5.25,9,9,0,0,0,.78,4.7,6.94,6.94,0,0,0,4.17,3.48,4,4,0,0,0,2.94.05,6,6,0,0,0,.91-.54,6.85,6.85,0,0,0,.71-.54,4.46,4.46,0,0,1,6.49,2.57,4,4,0,0,1-.57,3.7,8.86,8.86,0,0,1-6.07,4A15.57,15.57,0,0,1,137.07,37,16.24,16.24,0,0,1,130,29.84Z" transform="translate(-1.96 -2.27)"/><path d="M158.51,38.46q-1.66-1.43-1.57-5.05v-.14a58.81,58.81,0,0,1,1.87-11.86,41.79,41.79,0,0,1,3.38-9A17.22,17.22,0,0,1,167,6.66a12.5,12.5,0,0,1,4.14-2,9.16,9.16,0,0,1,7.08.78,11,11,0,0,1,2.33,1.69,15.54,15.54,0,0,1,1.91,2.21,14.36,14.36,0,0,1,1.44,2.52,22.33,22.33,0,0,1,1.25,3.78,33.45,33.45,0,0,1,.71,3.55c.13,1,.3,2.29.49,4q.6,5.64.94,8.43a9.53,9.53,0,0,1-.35,4.51,4.31,4.31,0,0,1-1.39,1.74,4.26,4.26,0,0,1-2.09.83,4.31,4.31,0,0,1-2.2-.34A4.41,4.41,0,0,1,179.48,37a4.69,4.69,0,0,1-.53-1,6,6,0,0,1-.35-1c-.06-.29-.16-.7-.29-1.22l-.25-1a4.69,4.69,0,0,0-4.7-3.87c-2.91-.17-5,.67-6.37,2.5a5,5,0,0,0-.56.95q-.27.57-.45,1c-.11.33-.24.71-.39,1.13s-.27.77-.37,1q-1.32,3.18-3.47,3.68A3.63,3.63,0,0,1,158.51,38.46Zm16.37-17.34a1.6,1.6,0,0,0,.54,0,1.42,1.42,0,0,0,1-.4,1.65,1.65,0,0,0,.19-1.56,1.56,1.56,0,0,0-.05-.35c-.06-.32-.12-.59-.17-.78s-.12-.51-.22-.93a8,8,0,0,0-.27-1l-.34-.93a2.06,2.06,0,0,0-.44-.81,4.75,4.75,0,0,1-.56-.59.72.72,0,0,0-.69-.31,4.86,4.86,0,0,1-.83.07,5.43,5.43,0,0,0-2.72,2.57,6.86,6.86,0,0,0-1.2,3.7,1.11,1.11,0,0,0,.49.93,2.47,2.47,0,0,0,.73.15C171.82,21,173.34,21.08,174.88,21.12Z" transform="translate(-1.96 -2.27)"/><path d="M211.33,38.26a20.91,20.91,0,0,1-10,2.5,17.5,17.5,0,0,1-5.42-.95A9.06,9.06,0,0,1,191.78,37,9.66,9.66,0,0,1,190,33.29a9.06,9.06,0,0,1-.08-4.14,4.78,4.78,0,0,1,1.3-2.52,3.86,3.86,0,0,1,2.43-1.15,4.6,4.6,0,0,1,2.52.31,4.28,4.28,0,0,1,1.93,1.65c0,.06.21.37.52.93a5.8,5.8,0,0,0,.86,1.22,5.16,5.16,0,0,0,5.53,1,3.15,3.15,0,0,0,1.92-1.76,3.4,3.4,0,0,0,.17-2.16,2.92,2.92,0,0,0-1.16-1.76A16,16,0,0,0,202,23.42a13.08,13.08,0,0,1-4.7-2.65,8.68,8.68,0,0,1-2.65-3.84,10.15,10.15,0,0,1-.51-4.54,10.66,10.66,0,0,1,1.54-4.33A9.62,9.62,0,0,1,199,4.75a3.4,3.4,0,0,0,.34-.2,13.75,13.75,0,0,1,6.56-1.61,17.31,17.31,0,0,1,2.7.22,15.51,15.51,0,0,1,2.87.73A7,7,0,0,1,214,5.39a4,4,0,0,1,1.3,2.3A3.67,3.67,0,0,1,214,11.44a4,4,0,0,1-4,.71c-.2-.07-.6-.22-1.2-.47a14.29,14.29,0,0,0-1.59-.54,4.37,4.37,0,0,0-1.33-.12,2.69,2.69,0,0,0-2.54,1.47,1.42,1.42,0,0,0,.05,1.57,2.73,2.73,0,0,0,1.39,1,10.1,10.1,0,0,0,2.28.47,10.72,10.72,0,0,1,1.81.29,12.45,12.45,0,0,1,5.1,2.45,10.76,10.76,0,0,1,2.77,4.22,13.18,13.18,0,0,1,.86,5.09,13.33,13.33,0,0,1-1.74,6.3A11.07,11.07,0,0,1,211.33,38.26Z" transform="translate(-1.96 -2.27)"/><path d="M220.79,8.87a2.73,2.73,0,0,1,1.37-2.26,6.73,6.73,0,0,1,3.24-.88c2-.1,5.68-.08,10.87,0l9.41.19a12.56,12.56,0,0,1,2.06.2,4.48,4.48,0,0,1,2.43,1.52,4.4,4.4,0,0,1,1,2.69q.1,3.24-3.23,4a11.74,11.74,0,0,1-2.89.44,4.52,4.52,0,0,0-2.7.64,3.76,3.76,0,0,0-1.15,1.4,5.82,5.82,0,0,0-.52,2.08q-.09,1.23-.09,2c0,.51.05,1.27.14,2.28s.15,1.59.15,1.72c.2,3,.33,5.86.39,8.47a4.45,4.45,0,0,1-1,3A4,4,0,0,1,237.6,38a4.4,4.4,0,0,1-3.16-.59,4.09,4.09,0,0,1-1.89-2.59,11.22,11.22,0,0,1-.29-2.6c0-.75-.06-1.58-.08-2.48s0-1.85-.07-2.86S232,25,232,24.35c0-.36,0-1,0-1.81s0-1.55,0-2.09a13.27,13.27,0,0,0-.17-1.91,6.27,6.27,0,0,0-.54-1.81,4.15,4.15,0,0,0-1.1-1.3,3.62,3.62,0,0,0-1.87-.73,12.59,12.59,0,0,0-1.61-.27q-1.28-.18-1.86-.3a10.32,10.32,0,0,1-1.6-.51,3.65,3.65,0,0,1-1.47-.93,5.2,5.2,0,0,1-.83-1.52A5,5,0,0,1,220.79,8.87Z" transform="translate(-1.96 -2.27)"/></g></g><g id="Pawcast_Logo_1" data-name="Pawcast Logo 1"><g class="cls-3"><g id="Group_1" data-name="Group 1"><path id="Path_1" data-name="Path 1" class="cls-4" d="M73.3,26.88A7.56,7.56,0,0,1,74.2,31a5.9,5.9,0,0,1-4.37,5c-2.78.72-5.74-.6-8.47.42-2.32.87-4.09,2.72-6,4.17A7.16,7.16,0,0,1,51,42.31a6.21,6.21,0,0,1-4.67-3.17,11.9,11.9,0,0,1-1.06-9.66,17.83,17.83,0,0,1,2.57-5.54,14.13,14.13,0,0,1,3.83-3.8,12.76,12.76,0,0,1,12-1.3c3.3,1.35,7.73,4.34,9.64,8" transform="translate(-1.96 -2.27)"/></g></g><path id="Path_3" data-name="Path 3" class="cls-4" d="M56.71,12.72c-1.66-2.8-1.06-7.27,1.5-9.33,2.2-1.78,5.44-1.5,6.63,1.31A7.79,7.79,0,0,1,65,9.45a7.91,7.91,0,0,1-2.29,4.31,3.83,3.83,0,0,1-5.42-.25,4.35,4.35,0,0,1-.56-.79" transform="translate(-1.96 -2.27)"/><path id="Path_4" data-name="Path 4" class="cls-4" d="M50.92,9.15a7.65,7.65,0,0,1,.94,5.21A3.71,3.71,0,0,1,50,16.83a4.45,4.45,0,0,1-4.14-.43,7.74,7.74,0,0,1-3.71-5.86C42,8.12,44.47,5.19,47,5.81a6.55,6.55,0,0,1,3.9,3.34" transform="translate(-1.96 -2.27)"/><g class="cls-5"><g id="Group_2" data-name="Group 2"><path id="Path_5" data-name="Path 5" class="cls-4" d="M68.54,15.2a3.9,3.9,0,0,1,.92-5.38,4.2,4.2,0,0,1,5.09.11,3.32,3.32,0,0,1,.81,2.78,5,5,0,0,1-2.14,3.79,3.22,3.22,0,0,1-4.46-.91c-.08-.13-.15-.26-.22-.39" transform="translate(-1.96 -2.27)"/></g></g><path id="Path_7" data-name="Path 7" class="cls-4" d="M37.12,22.25c-.08-.14-.15-.29-.22-.44a4.34,4.34,0,0,1,0-3.82c1.89-3.43,6.35-.75,7,2.14a3.79,3.79,0,0,1-1.08,3.73,3.45,3.45,0,0,1-3.42.46,4.6,4.6,0,0,1-2.28-2.07" transform="translate(-1.96 -2.27)"/><g class="cls-6"><g id="Group_3" data-name="Group 3"><path id="Path_8" data-name="Path 8" class="cls-7" d="M54.81,43.53a.47.47,0,0,1-.17,0,.4.4,0,0,1-.2-.48l3-8.9h-3a.39.39,0,0,1-.39-.39.4.4,0,0,1,0-.15L58,24.15a.39.39,0,0,1,.36-.24H62a.39.39,0,0,1,.4.39.47.47,0,0,1,0,.16l-3.07,6.9h2.91a.39.39,0,0,1,.39.39.43.43,0,0,1-.06.22L55.14,43.35A.4.4,0,0,1,54.81,43.53Z" transform="translate(-1.96 -2.27)"/></g></g></g></g></svg>