<svg id="Layer_1" data-name="Layer 1" xmlns="http://www.w3.org/2000/svg" viewBox="0 0 720 720"><defs><style>.cls-1{fill:#fed5a4;}</style></defs><rect class="cls-1" width="720" height="474.87"/><path class="cls-1" d="M-9.18,552.55a392.75,392.75,0,0,0,100.76,9.2c33.58-1.34,67.19-6.43,100-13.5C251.29,535.4,309.15,515.34,367.92,499c33.06-9.18,66.15-17,100.17-21.66l-11.56,1.55c33.3-4.47,67.81-6.33,101.22-1.87l-11.56-1.56c59.94,8.4,114.73,35.47,170.68,56.94,9.94,3.82,24.69.79,33.52-4.38,9-5.28,17.63-15.63,20-26,2.54-11.14,2-23.63-4.38-33.52s-14.87-15.72-26-20c-36.32-13.94-71.82-30.09-108.85-42.16-41-13.37-83.43-19.87-126.56-18.39-44,1.51-88,8.37-130.66,19.29-39.61,10.14-78.63,22.24-117.81,33.91-44,13.11-88.52,25.17-134.11,31.38L133.58,471c-34.17,4.53-68.71,5.55-103,1.12L42.2,473.7Q28,471.77,14,468.66c-11.36-2.53-23.3-1.6-33.52,4.38-9,5.28-17.63,15.63-20,26-2.54,11.14-2,23.64,4.38,33.52,6,9.26,14.92,17.52,26,20Z"/></svg>