<svg id="Layer_1" data-name="Layer 1" xmlns="http://www.w3.org/2000/svg" viewBox="0 0 720 450.41"><defs><style>.cls-1{fill:#fed5a4;}.cls-2{fill:#cae9f5;}</style></defs><path class="cls-1" d="M719.84,244.1a23.77,23.77,0,0,1,.16-3.39V0H0V316.94l161.87-31.15c57.7-7.39,105.92-11,158.54-2.88L480.8,307.77q11.82,1.83,23.7,3.3a360.34,360.34,0,0,0,162.62-17.56L720,275.09Z"/><path class="cls-2" d="M38.29,369c0-1.24.1-2.39.25-3.54a36.75,36.75,0,0,1,3.2-10.85,49.54,49.54,0,0,1,6.07-9.94,45,45,0,0,1,4.26-4.79,25.5,25.5,0,0,1,3.13-2.65,12.17,12.17,0,0,1,1.62-1,2.38,2.38,0,0,1,2.26,0,12.27,12.27,0,0,1,1.73,1.05,24.71,24.71,0,0,1,2.61,2.18,47.37,47.37,0,0,1,5.6,6.41,51.11,51.11,0,0,1,4.51,7.38,41.92,41.92,0,0,1,2.87,7.41,35.24,35.24,0,0,1,.9,4.32,28.89,28.89,0,0,1,.28,4.65,18.72,18.72,0,0,1-.75,4.87A19.7,19.7,0,0,1,62,388.37a20.27,20.27,0,0,1-3.2.39,18.88,18.88,0,0,1-2.38,0,18.49,18.49,0,0,1-4.36-.85,19.68,19.68,0,0,1-12.79-12.74,18.33,18.33,0,0,1-.77-3.45A24.57,24.57,0,0,1,38.29,369Z"/><path class="cls-2" d="M175.31,342.65c0-1.23.1-2.39.24-3.54a37,37,0,0,1,3.21-10.84,49.54,49.54,0,0,1,6.07-9.94,45.1,45.1,0,0,1,4.26-4.8,27.39,27.39,0,0,1,3.13-2.65,12.55,12.55,0,0,1,1.62-1,2.36,2.36,0,0,1,2.25,0,11.83,11.83,0,0,1,1.74,1.05,25.76,25.76,0,0,1,2.61,2.18,46.86,46.86,0,0,1,5.6,6.41,50.57,50.57,0,0,1,4.51,7.38,41.62,41.62,0,0,1,2.87,7.41,35.08,35.08,0,0,1,.9,4.31,29,29,0,0,1,.28,4.65,19.09,19.09,0,0,1-.75,4.87A19.73,19.73,0,0,1,199,362a20.14,20.14,0,0,1-3.19.39,18.88,18.88,0,0,1-2.38,0,19.56,19.56,0,0,1-17.92-17A24.93,24.93,0,0,1,175.31,342.65Z"/><path class="cls-2" d="M121.3,421.8c0-1.23.1-2.39.25-3.54a37,37,0,0,1,3.2-10.84,50.37,50.37,0,0,1,6.07-9.95,48.42,48.42,0,0,1,4.26-4.79,28.28,28.28,0,0,1,3.13-2.65,12.67,12.67,0,0,1,1.63-1,2.36,2.36,0,0,1,2.25,0,11.73,11.73,0,0,1,1.73,1.05,23.74,23.74,0,0,1,2.61,2.18,45.54,45.54,0,0,1,5.6,6.41,50.57,50.57,0,0,1,4.51,7.38,41.62,41.62,0,0,1,2.87,7.41,33.32,33.32,0,0,1,.9,4.31,29,29,0,0,1,.28,4.65,18.25,18.25,0,0,1-.75,4.87A19.69,19.69,0,0,1,145,441.14a20.13,20.13,0,0,1-3.2.39,18.88,18.88,0,0,1-2.38,0,19.67,19.67,0,0,1-17.15-13.59,18.68,18.68,0,0,1-.77-3.45C121.36,423.54,121.33,422.63,121.3,421.8Z"/><path class="cls-2" d="M270.3,395.42c0-1.24.1-2.39.24-3.54a37.36,37.36,0,0,1,3.2-10.85,50.63,50.63,0,0,1,6.08-9.94,45,45,0,0,1,4.26-4.79,26.41,26.41,0,0,1,3.13-2.65,13.09,13.09,0,0,1,1.62-1,2.39,2.39,0,0,1,2.25,0,13.86,13.86,0,0,1,1.74,1.05,28.7,28.7,0,0,1,2.61,2.18,47.54,47.54,0,0,1,5.6,6.42,49.66,49.66,0,0,1,4.5,7.38,40.33,40.33,0,0,1,2.87,7.4,33.5,33.5,0,0,1,.91,4.32,28.89,28.89,0,0,1,.28,4.65,19.09,19.09,0,0,1-.75,4.87A19.69,19.69,0,0,1,294,414.75a20.16,20.16,0,0,1-3.19.4,20.11,20.11,0,0,1-6.74-.89,19.73,19.73,0,0,1-12.8-12.74,20.46,20.46,0,0,1-.77-3.45C270.36,397.16,270.32,396.25,270.3,395.42Z"/><path class="cls-2" d="M364.73,357.79c0-1.23.1-2.39.25-3.54a36.69,36.69,0,0,1,3.2-10.84,49.54,49.54,0,0,1,6.07-9.94,47.29,47.29,0,0,1,4.26-4.8,26.33,26.33,0,0,1,3.13-2.64,12.17,12.17,0,0,1,1.62-1,2.38,2.38,0,0,1,2.26,0,11.73,11.73,0,0,1,1.73,1.05,23.74,23.74,0,0,1,2.61,2.18,46.1,46.1,0,0,1,5.6,6.41,50.57,50.57,0,0,1,4.51,7.38,41.62,41.62,0,0,1,2.87,7.41,35.24,35.24,0,0,1,.9,4.32,28.89,28.89,0,0,1,.28,4.65,18.72,18.72,0,0,1-.75,4.87,19.66,19.66,0,0,1-14.86,13.8,20.27,20.27,0,0,1-3.2.39,19.44,19.44,0,0,1-6.74-.89,19.68,19.68,0,0,1-12.79-12.74,18.33,18.33,0,0,1-.77-3.45A24.58,24.58,0,0,1,364.73,357.79Z"/><path class="cls-2" d="M404,430.66c0-1.24.1-2.39.24-3.54a37.45,37.45,0,0,1,3.2-10.85,50.63,50.63,0,0,1,6.08-9.94,45,45,0,0,1,4.26-4.79,26.41,26.41,0,0,1,3.13-2.65,13.09,13.09,0,0,1,1.62-1,2.42,2.42,0,0,1,2.25,0,12.82,12.82,0,0,1,1.74,1.06,25.76,25.76,0,0,1,2.61,2.18,46.86,46.86,0,0,1,5.6,6.41,49.66,49.66,0,0,1,4.5,7.38,40.15,40.15,0,0,1,2.87,7.41,33.35,33.35,0,0,1,.91,4.31,29,29,0,0,1,.28,4.65,19.09,19.09,0,0,1-.75,4.87A19.73,19.73,0,0,1,427.7,450a20.14,20.14,0,0,1-3.19.39,19.07,19.07,0,0,1-2.39,0A19.7,19.7,0,0,1,405,436.76a20.46,20.46,0,0,1-.77-3.45C404.09,432.4,404.05,431.49,404,430.66Z"/><path class="cls-2" d="M507.09,377.89c0-1.23.1-2.39.24-3.54a37.29,37.29,0,0,1,3.2-10.84,50,50,0,0,1,6.08-9.94,46.11,46.11,0,0,1,4.26-4.8,26.33,26.33,0,0,1,3.13-2.64,11,11,0,0,1,1.62-1,2.36,2.36,0,0,1,2.25,0,11.83,11.83,0,0,1,1.74,1,25.76,25.76,0,0,1,2.61,2.18,46.12,46.12,0,0,1,5.59,6.41,50.57,50.57,0,0,1,4.51,7.38,40.87,40.87,0,0,1,2.87,7.41,35.27,35.27,0,0,1,.91,4.32,28.89,28.89,0,0,1,.28,4.65,19.16,19.16,0,0,1-.75,4.87,19.69,19.69,0,0,1-14.87,13.8,20.13,20.13,0,0,1-3.2.39,18.91,18.91,0,0,1-2.38,0,19.12,19.12,0,0,1-4.36-.85A19.68,19.68,0,0,1,508,384a20,20,0,0,1-.77-3.45A24.51,24.51,0,0,1,507.09,377.89Z"/><path class="cls-2" d="M591.92,421.8c0-1.23.1-2.39.24-3.54a37.29,37.29,0,0,1,3.2-10.84,50.84,50.84,0,0,1,6.07-9.95,47.28,47.28,0,0,1,4.27-4.79,27.29,27.29,0,0,1,3.12-2.65,12.67,12.67,0,0,1,1.63-1,2.36,2.36,0,0,1,2.25,0,11.83,11.83,0,0,1,1.74,1.05,25.76,25.76,0,0,1,2.61,2.18,46.12,46.12,0,0,1,5.59,6.41,50.57,50.57,0,0,1,4.51,7.38A40.87,40.87,0,0,1,630,413.5a35.11,35.11,0,0,1,.91,4.31,30.24,30.24,0,0,1,.28,4.65,19.09,19.09,0,0,1-.75,4.87,19.73,19.73,0,0,1-14.87,13.81,20.13,20.13,0,0,1-3.2.39,18.91,18.91,0,0,1-2.38,0,19.67,19.67,0,0,1-4.36-.85,19.68,19.68,0,0,1-12.79-12.74,20.46,20.46,0,0,1-.77-3.45A24.83,24.83,0,0,1,591.92,421.8Z"/><path class="cls-2" d="M659.34,342.65c0-1.23.1-2.39.25-3.54a37,37,0,0,1,3.2-10.84,50.48,50.48,0,0,1,6.07-9.94,47.43,47.43,0,0,1,4.26-4.8,28.28,28.28,0,0,1,3.13-2.65,12.67,12.67,0,0,1,1.63-1,2.36,2.36,0,0,1,2.25,0,12.37,12.37,0,0,1,1.74,1.05,24.6,24.6,0,0,1,2.6,2.18,45.54,45.54,0,0,1,5.6,6.41,50.57,50.57,0,0,1,4.51,7.38,41.62,41.62,0,0,1,2.87,7.41,33.32,33.32,0,0,1,.9,4.31,27.92,27.92,0,0,1,.28,4.65,18.65,18.65,0,0,1-.74,4.87A19.73,19.73,0,0,1,683,362a20.13,20.13,0,0,1-3.2.39,18.91,18.91,0,0,1-2.38,0,19.67,19.67,0,0,1-4.36-.85,19.64,19.64,0,0,1-13.56-16.19C659.4,344.39,659.37,343.48,659.34,342.65Z"/></svg>