<?xml version="1.0" encoding="UTF-8"?><svg xmlns="http://www.w3.org/2000/svg" xmlns:xlink="http://www.w3.org/1999/xlink" width="810" zoomAndPan="magnify" viewBox="0 0 810 809.999993" height="809.999993" preserveAspectRatio="xMidYMid meet" version="1.0"><defs><clipPath id="clip-0"><path d="M 319.628906 369 L 546 369 L 546 555.957031 L 319.628906 555.957031 Z M 319.628906 369 " clip-rule="nonzero"/></clipPath><clipPath id="clip-1"><path d="M 497 301.085938 L 554.78125 301.085938 L 554.78125 362.910156 L 497 362.910156 Z M 497 301.085938 " clip-rule="nonzero"/></clipPath><clipPath id="clip-2"><path d="M 391.132812 415 L 457.132812 415 L 457.132812 565.636719 L 391.132812 565.636719 Z M 391.132812 415 " clip-rule="nonzero"/></clipPath></defs><path fill="rgb(100%, 74.119568%, 34.899902%)" d="M 424.335938 176.875 C 420.4375 176.875 416.542969 176.972656 412.652344 177.164062 C 408.757812 177.355469 404.875 177.640625 400.996094 178.023438 C 397.117188 178.40625 393.25 178.882812 389.394531 179.453125 C 385.539062 180.023438 381.703125 180.691406 377.878906 181.453125 C 374.058594 182.210938 370.257812 183.066406 366.476562 184.011719 C 362.695312 184.957031 358.941406 186 355.210938 187.128906 C 351.484375 188.261719 347.785156 189.484375 344.113281 190.796875 C 340.445312 192.109375 336.808594 193.511719 333.210938 195 C 329.609375 196.492188 326.046875 198.070312 322.523438 199.738281 C 319 201.40625 315.523438 203.15625 312.085938 204.992188 C 308.648438 206.832031 305.257812 208.75 301.914062 210.753906 C 298.574219 212.757812 295.28125 214.84375 292.039062 217.007812 C 288.800781 219.171875 285.617188 221.414062 282.484375 223.738281 C 279.355469 226.058594 276.285156 228.457031 273.269531 230.925781 C 270.257812 233.398438 267.308594 235.945312 264.421875 238.5625 C 261.535156 241.179688 258.710938 243.867188 255.957031 246.621094 C 253.199219 249.375 250.515625 252.199219 247.898438 255.085938 C 245.28125 257.972656 242.734375 260.921875 240.261719 263.9375 C 237.789062 266.949219 235.394531 270.019531 233.070312 273.148438 C 230.75 276.28125 228.507812 279.464844 226.34375 282.707031 C 224.175781 285.945312 222.09375 289.238281 220.089844 292.578125 C 218.085938 295.921875 216.164062 299.3125 214.328125 302.75 C 212.492188 306.1875 210.738281 309.667969 209.074219 313.1875 C 207.40625 316.710938 205.828125 320.273438 204.335938 323.875 C 202.847656 327.476562 201.445312 331.109375 200.128906 334.777344 C 198.816406 338.449219 197.597656 342.148438 196.464844 345.875 C 195.332031 349.605469 194.292969 353.359375 193.347656 357.140625 C 192.402344 360.921875 191.546875 364.722656 190.785156 368.542969 C 190.027344 372.367188 189.359375 376.207031 188.789062 380.058594 C 188.214844 383.914062 187.738281 387.78125 187.359375 391.660156 C 186.976562 395.539062 186.6875 399.425781 186.496094 403.316406 C 186.304688 407.207031 186.210938 411.105469 186.210938 415 C 186.210938 418.898438 186.304688 422.792969 186.496094 426.683594 C 186.6875 430.578125 186.976562 434.460938 187.359375 438.339844 C 187.738281 442.21875 188.214844 446.085938 188.789062 449.941406 C 189.359375 453.796875 190.027344 457.632812 190.785156 461.457031 C 191.546875 465.277344 192.402344 469.078125 193.347656 472.859375 C 194.292969 476.640625 195.332031 480.394531 196.464844 484.125 C 197.597656 487.855469 198.816406 491.554688 200.128906 495.222656 C 201.445312 498.890625 202.847656 502.527344 204.335938 506.128906 C 205.828125 509.726562 207.40625 513.289062 209.074219 516.8125 C 210.738281 520.335938 212.492188 523.816406 214.328125 527.253906 C 216.164062 530.6875 218.085938 534.078125 220.089844 537.421875 C 222.09375 540.765625 224.175781 544.054688 226.34375 547.296875 C 228.507812 550.535156 230.75 553.722656 233.070312 556.851562 C 235.394531 559.980469 237.789062 563.054688 240.261719 566.066406 C 242.734375 569.078125 245.28125 572.027344 247.898438 574.914062 C 250.515625 577.804688 253.199219 580.625 255.957031 583.378906 C 258.710938 586.136719 261.535156 588.824219 264.421875 591.441406 C 267.308594 594.058594 270.257812 596.601562 273.269531 599.074219 C 276.285156 601.546875 279.355469 603.941406 282.484375 606.265625 C 285.617188 608.585938 288.800781 610.828125 292.039062 612.996094 C 295.28125 615.160156 298.574219 617.242188 301.914062 619.246094 C 305.257812 621.25 308.648438 623.171875 312.085938 625.007812 C 315.523438 626.84375 319 628.597656 322.523438 630.261719 C 326.046875 631.929688 329.609375 633.507812 333.210938 635 C 336.808594 636.492188 340.445312 637.894531 344.113281 639.207031 C 347.785156 640.519531 351.484375 641.742188 355.210938 642.871094 C 358.941406 644.003906 362.695312 645.042969 366.476562 645.988281 C 370.257812 646.9375 374.058594 647.789062 377.878906 648.550781 C 381.703125 649.308594 385.539062 649.976562 389.394531 650.546875 C 393.25 651.121094 397.117188 651.597656 400.996094 651.980469 C 404.875 652.359375 408.757812 652.648438 412.652344 652.839844 C 416.542969 653.03125 420.4375 653.125 424.335938 653.125 C 428.234375 653.125 432.128906 653.03125 436.019531 652.839844 C 439.914062 652.648438 443.796875 652.359375 447.675781 651.980469 C 451.554688 651.597656 455.421875 651.121094 459.277344 650.546875 C 463.132812 649.976562 466.96875 649.308594 470.792969 648.550781 C 474.613281 647.789062 478.414062 646.9375 482.195312 645.988281 C 485.976562 645.042969 489.730469 644.003906 493.460938 642.871094 C 497.1875 641.742188 500.886719 640.519531 504.558594 639.207031 C 508.226562 637.894531 511.863281 636.492188 515.460938 635 C 519.0625 633.507812 522.625 631.929688 526.148438 630.261719 C 529.671875 628.597656 533.148438 626.84375 536.585938 625.007812 C 540.023438 623.171875 543.414062 621.25 546.757812 619.246094 C 550.097656 617.242188 553.390625 615.160156 556.632812 612.996094 C 559.871094 610.828125 563.058594 608.585938 566.1875 606.265625 C 569.316406 603.941406 572.386719 601.546875 575.402344 599.074219 C 578.414062 596.601562 581.363281 594.058594 584.25 591.441406 C 587.136719 588.824219 589.960938 586.136719 592.714844 583.378906 C 595.472656 580.625 598.15625 577.804688 600.773438 574.914062 C 603.390625 572.027344 605.9375 569.078125 608.410156 566.066406 C 610.882812 563.054688 613.277344 559.980469 615.601562 556.851562 C 617.921875 553.722656 620.164062 550.535156 622.328125 547.296875 C 624.496094 544.054688 626.578125 540.765625 628.582031 537.421875 C 630.585938 534.078125 632.507812 530.6875 634.34375 527.253906 C 636.179688 523.816406 637.933594 520.335938 639.597656 516.8125 C 641.265625 513.289062 642.84375 509.726562 644.335938 506.128906 C 645.824219 502.527344 647.226562 498.890625 648.542969 495.222656 C 649.855469 491.554688 651.074219 487.855469 652.207031 484.125 C 653.339844 480.394531 654.378906 476.640625 655.324219 472.859375 C 656.273438 469.078125 657.125 465.277344 657.886719 461.457031 C 658.644531 457.632812 659.3125 453.796875 659.882812 449.941406 C 660.457031 446.085938 660.933594 442.21875 661.3125 438.339844 C 661.695312 434.460938 661.984375 430.578125 662.175781 426.683594 C 662.367188 422.792969 662.460938 418.898438 662.460938 415 C 662.460938 411.105469 662.367188 407.207031 662.175781 403.316406 C 661.984375 399.425781 661.695312 395.539062 661.3125 391.660156 C 660.933594 387.78125 660.457031 383.914062 659.882812 380.058594 C 659.3125 376.207031 658.644531 372.367188 657.886719 368.542969 C 657.125 364.722656 656.273438 360.921875 655.324219 357.140625 C 654.378906 353.359375 653.339844 349.605469 652.207031 345.875 C 651.074219 342.148438 649.855469 338.449219 648.542969 334.777344 C 647.226562 331.109375 645.824219 327.476562 644.335938 323.875 C 642.84375 320.273438 641.265625 316.710938 639.597656 313.1875 C 637.933594 309.667969 636.179688 306.1875 634.34375 302.75 C 632.507812 299.3125 630.585938 295.921875 628.582031 292.578125 C 626.578125 289.238281 624.496094 285.945312 622.328125 282.707031 C 620.164062 279.464844 617.921875 276.28125 615.601562 273.148438 C 613.277344 270.019531 610.882812 266.949219 608.410156 263.9375 C 605.9375 260.921875 603.390625 257.972656 600.773438 255.085938 C 598.15625 252.199219 595.472656 249.375 592.714844 246.621094 C 589.960938 243.867188 587.136719 241.179688 584.25 238.5625 C 581.363281 235.945312 578.414062 233.398438 575.402344 230.925781 C 572.386719 228.457031 569.316406 226.058594 566.1875 223.738281 C 563.058594 221.414062 559.871094 219.171875 556.632812 217.007812 C 553.390625 214.84375 550.097656 212.757812 546.757812 210.753906 C 543.414062 208.75 540.023438 206.832031 536.585938 204.992188 C 533.148438 203.15625 529.671875 201.40625 526.148438 199.738281 C 522.625 198.070312 519.0625 196.492188 515.460938 195 C 511.863281 193.511719 508.226562 192.109375 504.558594 190.796875 C 500.886719 189.484375 497.1875 188.261719 493.460938 187.128906 C 489.730469 186 485.976562 184.957031 482.195312 184.011719 C 478.414062 183.066406 474.613281 182.210938 470.792969 181.453125 C 466.96875 180.691406 463.132812 180.023438 459.277344 179.453125 C 455.421875 178.882812 451.554688 178.40625 447.675781 178.023438 C 443.796875 177.640625 439.914062 177.355469 436.019531 177.164062 C 432.128906 176.972656 428.234375 176.875 424.335938 176.875 Z M 424.335938 176.875 " fill-opacity="1" fill-rule="nonzero"/><g clip-path="url(#clip-0)"><path fill="rgb(100%, 100%, 100%)" d="M 538.8125 437.957031 C 543.957031 447.957031 546.675781 458.625 545.722656 469.652344 C 544.171875 487.59375 529.78125 503.292969 512.320312 507.804688 C 491.035156 513.300781 468.375 503.214844 447.53125 511.027344 C 429.816406 517.671875 416.242188 531.824219 401.320312 542.875 C 391.527344 550.125 380.132812 556.460938 367.953125 555.957031 C 352.984375 555.34375 340.207031 544.390625 332.21875 531.730469 C 317.984375 509.160156 317.332031 482.972656 324.105469 457.847656 C 328.222656 442.574219 334.730469 428.476562 343.738281 415.519531 C 351.714844 404.046875 361.3125 394.097656 373.058594 386.476562 C 401.195312 368.226562 433.710938 363.664062 465.097656 376.507812 C 490.328125 386.828125 524.261719 409.707031 538.8125 437.957031 " fill-opacity="1" fill-rule="nonzero"/></g><path fill="rgb(100%, 100%, 100%)" d="M 411.945312 329.65625 C 399.25 308.292969 403.800781 274.117188 423.410156 258.320312 C 440.257812 244.75 465.019531 246.839844 474.097656 268.332031 C 478.886719 279.6875 477.976562 292.660156 475.1875 304.660156 C 472.324219 316.992188 467.234375 329.355469 457.640625 337.632812 C 441.777344 351.324219 421.457031 345.664062 411.945312 329.65625 " fill-opacity="1" fill-rule="nonzero"/><path fill="rgb(100%, 100%, 100%)" d="M 367.648438 302.386719 C 374.652344 315.054688 377.738281 330.082031 374.847656 342.253906 C 372.988281 350.101562 368.097656 357.445312 360.898438 361.097656 C 351.046875 366.097656 338.828125 363.417969 329.296875 357.839844 C 313.480469 348.574219 302.585938 331.246094 300.871094 313.035156 C 299.125 294.480469 318.292969 272.105469 337.828125 276.859375 C 350.226562 279.878906 360.804688 290.007812 367.648438 302.386719 " fill-opacity="1" fill-rule="nonzero"/><g clip-path="url(#clip-1)"><path fill="rgb(100%, 100%, 100%)" d="M 502.433594 348.644531 C 494.71875 335.753906 494.65625 317.285156 509.425781 307.507812 C 520.957031 299.878906 537.710938 298.476562 548.351562 308.367188 C 554.140625 313.75 555.300781 322.082031 554.601562 329.617188 C 553.535156 341.050781 547.9375 352.433594 538.21875 358.566406 C 523.507812 367.851562 509.640625 360.679688 502.433594 348.644531 " fill-opacity="1" fill-rule="nonzero"/></g><path fill="rgb(100%, 100%, 100%)" d="M 262.125 402.566406 C 261.515625 401.476562 260.949219 400.359375 260.441406 399.230469 C 256.300781 390.015625 255.558594 378.851562 260.441406 370.007812 C 274.921875 343.769531 308.96875 364.21875 314.011719 386.355469 C 316.320312 396.507812 313.800781 408.207031 305.785156 414.867188 C 298.667969 420.78125 288.164062 421.789062 279.550781 418.390625 C 272.101562 415.453125 266.070312 409.566406 262.125 402.566406 " fill-opacity="1" fill-rule="nonzero"/><g clip-path="url(#clip-2)"><path fill="rgb(100%, 74.119568%, 34.899902%)" d="M 397.40625 565.296875 C 396.964844 565.296875 396.523438 565.199219 396.105469 564.996094 C 394.753906 564.335938 394.097656 562.773438 394.574219 561.34375 L 417.152344 493.261719 L 394.417969 493.261719 C 393.421875 493.261719 392.488281 492.761719 391.933594 491.925781 C 391.378906 491.09375 391.277344 490.035156 391.660156 489.109375 L 421.527344 417.074219 C 421.988281 415.957031 423.074219 415.226562 424.28125 415.226562 L 452.652344 415.226562 C 453.664062 415.226562 454.609375 415.742188 455.160156 416.597656 C 455.710938 417.449219 455.792969 418.527344 455.378906 419.453125 L 431.875 472.253906 L 454.144531 472.253906 C 455.242188 472.253906 456.25 472.859375 456.773438 473.824219 C 457.296875 474.796875 457.246094 475.976562 456.644531 476.894531 L 399.902344 563.9375 C 399.332031 564.8125 398.382812 565.296875 397.40625 565.296875 Z M 397.40625 565.296875 " fill-opacity="1" fill-rule="nonzero"/></g></svg>